<svg xmlns="http://www.w3.org/2000/svg" viewBox="95 156 320 320" width="24" height="24">
  <path d="M400 212
           C 384 218 366 221 350 221
           C 338 224 327 236 318 252
           C 316 290 298 318 272 334
           C 264 344 254 349 245 351
           C 237 354 229 356 222 356
           C 190 394 150 424 120 452
           C 152 416 178 376 200 340
           C 202 312 205 284 212 260
           C 222 222 236 200 258 190
           C 282 180 308 180 330 186
           C 356 190 380 200 400 212 Z"
        fill="#424242"/>
</svg>
