<svg width="64" height="64" viewBox="0 0 64 64" fill="none" xmlns="http://www.w3.org/2000/svg">
<path d="M49.1091 45.0522L37.3091 57.4522C32.3368 58.4894 27.1696 58.0474 22.4456 56.1809C17.7217 54.3143 13.6479 51.105 10.7274 46.9492C7.80698 42.7934 6.16775 37.8732 6.0122 32.7962C5.85665 27.7193 7.1916 22.7079 9.85217 18.3812C12.5127 14.0544 16.3824 10.6017 20.9832 8.44943C25.584 6.29719 30.7145 5.53972 35.741 6.27056C40.7675 7.0014 45.4698 9.18854 49.2672 12.5619C53.0647 15.9352 55.7909 20.3469 57.1091 25.2522" stroke="black" stroke-width="3.7" stroke-linecap="round" stroke-linejoin="round"/>
<path fill-rule="evenodd" clip-rule="evenodd" d="M20.0091 26.2522L17.9091 25.7522L22.0091 21.6522C26.0091 17.9522 31.3091 16.5522 35.5091 17.9522C37.5091 18.6522 39.3091 19.7522 40.6091 21.3522C46.1091 21.5522 50.1091 23.9522 51.0091 28.2522C46.6091 27.0522 42.8091 27.4522 40.3091 29.8522C37.5091 32.5522 37.1091 37.0522 36.1091 41.1522C34.9091 46.8522 31.4091 51.4522 26.5091 55.6522C19.0091 54.6522 13.0091 50.7522 9.70911 45.1522C11.2091 41.2522 13.5091 37.8522 16.8091 35.0522L13.9091 35.9522L17.6091 30.2522L14.4091 31.4522L17.9091 27.4522L20.0091 26.2522ZM31.9091 23.3522C33.7091 23.2522 35.8091 23.2522 37.0091 24.0522C36.4091 25.4522 35.4091 26.1522 34.3091 26.2522C33.1091 26.1522 32.4091 25.0522 31.9091 23.3522Z" fill="black"/>
<path d="M41.3091 54.2522H48.7091" stroke="black" stroke-width="3.7" stroke-linecap="round" stroke-linejoin="round"/>
<path d="M53.0091 45.2522C55.4944 45.2522 57.5091 43.2375 57.5091 40.7522C57.5091 38.2669 55.4944 36.2522 53.0091 36.2522C50.5238 36.2522 48.5091 38.2669 48.5091 40.7522C48.5091 43.2375 50.5238 45.2522 53.0091 45.2522Z" stroke="black" stroke-width="3.7"/>
<path d="M53.2091 58.7522C55.6944 58.7522 57.7091 56.7375 57.7091 54.2522C57.7091 51.7669 55.6944 49.7522 53.2091 49.7522C50.7238 49.7522 48.7091 51.7669 48.7091 54.2522C48.7091 56.7375 50.7238 58.7522 53.2091 58.7522Z" stroke="black" stroke-width="3.7"/>
</svg>
